<svg width="480" height="480" viewBox="0 0 480 480" fill="none" xmlns="http://www.w3.org/2000/svg">
<g clip-path="url(#clip0_3299_30598)">
<path d="M240 0C358.641 9.46944e-06 480 83.3588 480 240C480 398.473 358.641 480.001 240 480.001C121.359 480.001 0 398.473 0 240C0.000136427 83.3588 121.359 0 240 0ZM111.585 84.1328C100.817 84.133 92.0889 92.8624 92.0889 103.63V377.341C92.0889 388.108 100.817 396.838 111.585 396.838H365.195C375.963 396.838 384.691 388.108 384.691 377.341V103.63C384.691 92.8624 375.963 84.133 365.195 84.1328H111.585Z" fill="white"/>
</g>
<defs>
<clipPath id="clip0_3299_30598">
<rect width="480" height="480" rx="240" fill="white"/>
</clipPath>
</defs>
</svg>
