<svg width="32" height="32" viewBox="0 0 1024 1024" fill="none" xmlns="http://www.w3.org/2000/svg">
<g clip-path="url(#clip0)">
<path d="M0.414062 0L1024.41 0.414097L1024 1024.41L-3.48985e-05 1024L0.414062 0Z" fill="#FF3700"/>
<path d="M355.194 187.89L575.434 187.74L643.151 187.747C678.342 187.656 706.972 182.857 732.407 212.267C754.247 237.521 751.984 281.548 727.143 303.651C711.866 317.245 683.825 327.159 664.539 335.254C647.032 342.654 629.465 349.913 611.841 357.032L511.329 397.691C494.166 404.711 470.187 412.853 455.857 423.864C435.96 439.151 433.626 473.663 450.701 492.267C481.683 526.02 540.483 500.859 576.101 487.444C596.209 479.86 616.23 472.047 636.161 464.006C654.096 456.742 675.579 445.71 694.824 447.239C711.704 448.705 727.308 456.818 738.202 469.794C744.924 477.715 749.488 487.237 751.453 497.439C753.544 508.045 752.927 520.013 752.819 530.864L752.682 564.84L752.699 603.398C752.71 636.672 751.828 657.64 724.102 680.798C711.287 690.567 699.199 694.635 683.119 695.42C648.063 697.132 628.687 672.978 605.449 651.301L545.613 594.811C528.797 578.964 513.544 567.148 489.271 568.145C473.371 568.798 460.525 574.149 449.738 585.891C425.021 612.096 437.217 646.795 445.841 676.87C451.754 697.491 456.619 719.371 462.432 740.137C464.799 748.595 467.227 757.444 467.603 766.314C468.347 784.117 461.937 801.479 449.802 814.528C437.069 828.346 419.356 836.521 400.581 837.245C392.425 837.53 383.329 837.38 375.138 837.438C348.213 837.509 322.428 836.955 301.613 817.42C275.548 792.957 280.306 765.738 279.952 733.965L278.667 618.506L274.741 415.742L272.626 307.472L271.908 274.059C271.764 266.122 271.683 258.367 272.124 250.474C273.477 226.258 287.947 206.614 309.5 196.001C324.303 188.713 339.021 188.325 355.194 187.89Z" fill="#030200"/>
</g>
<defs>
<clipPath id="clip0">
<rect width="1024" height="1024" rx="150" fill="white"/>
</clipPath>
</defs>
</svg>
